<?xml version="1.0" encoding="utf-8"?>
<!-- Generator: Adobe Illustrator 24.2.1, SVG Export Plug-In . SVG Version: 6.00 Build 0)  -->
<svg version="1.1" id="Camada_1" xmlns="http://www.w3.org/2000/svg" xmlns:xlink="http://www.w3.org/1999/xlink" x="0px" y="0px"
	 viewBox="0 0 429.31 124.71" style="enable-background:new 0 0 429.31 124.71;" xml:space="preserve">
<style type="text/css">
	.st0{fill:#FEC908;}
	.st1{fill:#EDEDED;}
</style>
<g>
	<g>
		<rect x="90.21" y="9.92" class="st0" width="13.46" height="13.46"/>
		<rect x="112.79" y="18.18" class="st0" width="8.82" height="8.82"/>
		<rect x="99.78" y="29.43" class="st0" width="10.16" height="10.16"/>
		<path class="st0" d="M95.21,29.13H78.93L62.65,45.41l0,0L46.36,29.13H13.79l0,81.42l32.57,0l16.28-16.28l0,0l16.28,16.28l32.57,0
			V45.41H95.22L95.21,29.13z M95.21,94.26L95.21,94.26H78.93V61.7L62.65,77.98l0,0L46.36,61.7v32.57H30.08l0,0l0-48.85l16.29,0
			L62.65,61.7l0,0l16.28-16.28l16.28,0L95.21,94.26z"/>
		<g>
			<path class="st0" d="M47.78,65.13v17.21c1.12,0.55,2.24,1.08,3.37,1.6c1.04,0.42,2.85,1.16,3.53,1.4
				c6.82,2.45,13.8,4.28,20.94,5.46c0.63,0.07,1.26,0.12,1.89,0.18V65.13L62.65,79.99L47.78,65.13z"/>
			<path class="st0" d="M98,90.86c4.07-0.68,8.11-1.59,12.08-2.72V46.83H96.64l0,44.15C97.09,90.94,97.54,90.91,98,90.86z"/>
			<path class="st0" d="M18.95,62.12c3.07,2.79,6.12,5.62,9.36,8.22c0.1,0.08,0.22,0.17,0.35,0.27l0-26.63l18.3,0l15.69,15.69
				l15.7-15.69l15.45,0l0-13.44H79.52L62.65,47.42L45.77,30.55H15.21l0,28.06C16.44,59.8,17.69,60.98,18.95,62.12z"/>
		</g>
	</g>
	<g>
		<path class="st1" d="M149.96,44.82v39.46h-8.97l-0.01-26.64l-3.57,26.64h-6.36l-3.77-26.03l-0.01,26.03h-8.97V44.82h13.28
			c0.39,2.37,0.8,5.17,1.22,8.39l1.46,10.04l2.36-18.42H149.96z"/>
		<path class="st1" d="M163.92,44.82v5.14h-10.14v-5.14H163.92z M163.92,51.94v32.34h-10.14V51.94H163.92z"/>
		<path class="st1" d="M177.47,51.94l-0.17,2.98c0.71-1.19,1.59-2.08,2.62-2.67s2.22-0.89,3.57-0.89c1.69,0,3.07,0.4,4.14,1.19
			c1.07,0.8,1.76,1.8,2.07,3.01c0.31,1.21,0.46,3.23,0.46,6.06v22.67h-9.85v-22.4c0-2.23-0.07-3.58-0.22-4.07
			c-0.15-0.49-0.55-0.73-1.22-0.73c-0.7,0-1.14,0.28-1.32,0.84s-0.27,2.06-0.27,4.5v21.86h-9.85V51.94H177.47z"/>
		<path class="st1" d="M203.4,44.82v8.88c0.84-0.78,1.76-1.37,2.74-1.76c0.98-0.39,2.03-0.59,3.16-0.59c1.72,0,3.19,0.44,4.4,1.32
			s1.95,1.89,2.22,3.03c0.27,1.15,0.4,3.24,0.4,6.28v22.3h-9.85V61.52c0-1.88-0.09-3.1-0.28-3.63s-0.61-0.8-1.25-0.8
			c-0.6,0-1.01,0.28-1.22,0.83c-0.21,0.55-0.32,1.65-0.32,3.29v23.08h-9.85V44.82H203.4z"/>
		<path class="st1" d="M228.51,64.47h-9.24V62.3c0-2.5,0.29-4.43,0.87-5.79c0.58-1.36,1.73-2.56,3.47-3.6
			c1.74-1.04,4-1.56,6.78-1.56c3.33,0,5.84,0.59,7.53,1.77c1.69,1.18,2.71,2.62,3.05,4.34c0.34,1.71,0.51,5.24,0.51,10.59v16.23
			h-9.58V81.4c-0.6,1.16-1.38,2.02-2.33,2.6c-0.95,0.58-2.08,0.87-3.4,0.87c-1.72,0-3.3-0.48-4.74-1.45
			c-1.44-0.97-2.16-3.08-2.16-6.35v-2.66c0-2.42,0.38-4.07,1.15-4.95c0.76-0.88,2.66-1.9,5.68-3.07c3.23-1.27,4.96-2.12,5.19-2.56
			c0.23-0.44,0.34-1.33,0.34-2.68c0-1.69-0.13-2.79-0.38-3.3c-0.25-0.51-0.67-0.77-1.26-0.77c-0.67,0-1.08,0.22-1.24,0.65
			c-0.16,0.43-0.24,1.55-0.24,3.35V64.47z M231.63,68.9c-1.58,1.15-2.49,2.12-2.74,2.9c-0.25,0.78-0.38,1.9-0.38,3.36
			c0,1.67,0.11,2.75,0.33,3.24c0.22,0.49,0.65,0.73,1.3,0.73c0.62,0,1.02-0.19,1.21-0.57c0.19-0.38,0.28-1.38,0.28-3.01V68.9z"/>
		<path class="st1" d="M245.15,44.82h17.11v7.9h-6.85v7.48h6.41v7.51h-6.41v8.68h7.53v7.9h-17.79V44.82z"/>
		<path class="st1" d="M275.32,51.94l-0.17,3.08c0.76-1.22,1.67-2.14,2.73-2.75c1.06-0.61,2.26-0.92,3.61-0.92
			c2.63,0,4.7,1.22,6.21,3.66c0.83-1.22,1.76-2.14,2.8-2.75c1.04-0.61,2.19-0.92,3.46-0.92c1.67,0,3.06,0.41,4.16,1.22
			s1.8,1.81,2.11,2.99c0.31,1.18,0.46,3.09,0.46,5.74v22.98h-9.55V63.2c0-2.76-0.09-4.47-0.28-5.13s-0.62-0.99-1.3-0.99
			c-0.7,0-1.15,0.33-1.35,0.97c-0.2,0.65-0.3,2.36-0.3,5.14v21.08h-9.55V63.74c0-3.17-0.08-5.07-0.23-5.7s-0.58-0.95-1.28-0.95
			c-0.44,0-0.81,0.17-1.12,0.5c-0.31,0.33-0.48,0.74-0.51,1.22c-0.03,0.48-0.05,1.5-0.05,3.06v22.42h-9.55V51.94H275.32z"/>
		<path class="st1" d="M314.1,51.94l-0.17,2.86c0.88-1.16,1.84-2.02,2.9-2.59c1.06-0.57,2.21-0.85,3.46-0.85
			c1.53,0,2.85,0.41,3.96,1.23s1.81,1.77,2.08,2.84c0.28,1.07,0.41,2.89,0.41,5.46v13.62c0,2.94-0.17,5.03-0.52,6.28
			c-0.35,1.24-1.06,2.23-2.14,2.97c-1.08,0.74-2.38,1.11-3.91,1.11c-1.22,0-2.35-0.29-3.39-0.85s-1.99-1.42-2.85-2.54v7.42h-9.85
			V51.94H314.1z M316.9,61.35c0-2-0.07-3.21-0.22-3.63c-0.15-0.42-0.55-0.63-1.22-0.63c-0.65,0-1.07,0.24-1.25,0.73
			s-0.28,1.67-0.28,3.53v13.4c0,1.95,0.1,3.17,0.29,3.66c0.19,0.49,0.62,0.73,1.27,0.73c0.63,0,1.03-0.22,1.18-0.67
			c0.15-0.45,0.23-1.53,0.23-3.25V61.35z"/>
		<path class="st1" d="M339.84,51.94l-0.39,4.25c1.43-3.05,3.5-4.66,6.21-4.84v11.38c-1.8,0-3.13,0.24-3.97,0.73
			c-0.84,0.49-1.37,1.17-1.56,2.03c-0.2,0.87-0.29,2.87-0.29,6.01v12.77h-9.85V51.94H339.84z"/>
		<path class="st1" d="M370.15,68.68h-12.75v6.99c0,1.46,0.11,2.41,0.32,2.83c0.21,0.42,0.62,0.63,1.22,0.63
			c0.75,0,1.25-0.28,1.5-0.84s0.38-1.64,0.38-3.25v-4.27h9.33v2.39c0,2-0.13,3.53-0.38,4.61s-0.84,2.22-1.77,3.44
			c-0.93,1.22-2.1,2.13-3.52,2.74c-1.42,0.61-3.21,0.91-5.35,0.91c-2.08,0-3.92-0.3-5.51-0.9c-1.59-0.6-2.83-1.43-3.72-2.47
			c-0.89-1.05-1.5-2.2-1.84-3.46c-0.34-1.26-0.51-3.09-0.51-5.5V63.1c0-2.83,0.38-5.06,1.15-6.69s2.01-2.88,3.75-3.75
			c1.74-0.87,3.74-1.3,6-1.3c2.76,0,5.04,0.52,6.84,1.57c1.79,1.05,3.05,2.44,3.78,4.17c0.72,1.73,1.08,4.16,1.08,7.3V68.68z
			 M360.28,63.42v-2.36c0-1.67-0.09-2.75-0.27-3.24s-0.54-0.73-1.1-0.73c-0.68,0-1.11,0.21-1.27,0.62
			c-0.16,0.41-0.24,1.53-0.24,3.35v2.36H360.28z"/>
		<path class="st1" d="M393.48,62.27h-8.73v-1.75c0-1.49-0.08-2.44-0.26-2.84c-0.17-0.4-0.6-0.6-1.28-0.6
			c-0.55,0-0.97,0.18-1.24,0.55c-0.28,0.37-0.41,0.91-0.41,1.65c0,0.99,0.07,1.72,0.21,2.18s0.55,0.97,1.24,1.52
			c0.69,0.55,2.11,1.36,4.25,2.41c2.86,1.4,4.74,2.71,5.63,3.95s1.34,3.03,1.34,5.39c0,2.63-0.34,4.62-1.02,5.96
			c-0.68,1.34-1.82,2.37-3.42,3.09c-1.6,0.72-3.53,1.08-5.79,1.08c-2.5,0-4.64-0.39-6.42-1.17s-3-1.84-3.67-3.17
			c-0.67-1.33-1-3.35-1-6.04v-1.56h8.72v2.05c0,1.74,0.11,2.87,0.33,3.39c0.22,0.52,0.65,0.78,1.3,0.78c0.7,0,1.19-0.17,1.46-0.52
			s0.42-1.08,0.42-2.21c0-1.54-0.18-2.51-0.54-2.9c-0.37-0.39-2.28-1.54-5.73-3.46c-2.89-1.63-4.66-3.1-5.29-4.42
			c-0.63-1.32-0.95-2.9-0.95-4.72c0-2.58,0.34-4.49,1.02-5.72c0.68-1.23,1.84-2.17,3.47-2.84c1.63-0.67,3.53-1,5.69-1
			c2.14,0,3.97,0.27,5.47,0.82c1.5,0.54,2.66,1.26,3.46,2.16c0.8,0.89,1.29,1.72,1.46,2.49c0.17,0.76,0.26,1.96,0.26,3.58V62.27z"/>
		<path class="st1" d="M405.66,64.47h-9.24V62.3c0-2.5,0.29-4.43,0.87-5.79c0.58-1.36,1.73-2.56,3.47-3.6
			c1.74-1.04,4-1.56,6.78-1.56c3.33,0,5.84,0.59,7.53,1.77c1.69,1.18,2.71,2.62,3.05,4.34c0.34,1.71,0.51,5.24,0.51,10.59v16.23
			h-9.58V81.4c-0.6,1.16-1.38,2.02-2.33,2.6c-0.95,0.58-2.08,0.87-3.4,0.87c-1.72,0-3.3-0.48-4.74-1.45
			c-1.44-0.97-2.16-3.08-2.16-6.35v-2.66c0-2.42,0.38-4.07,1.15-4.95c0.76-0.88,2.66-1.9,5.68-3.07c3.23-1.27,4.96-2.12,5.19-2.56
			c0.23-0.44,0.34-1.33,0.34-2.68c0-1.69-0.13-2.79-0.38-3.3c-0.25-0.51-0.67-0.77-1.26-0.77c-0.67,0-1.08,0.22-1.24,0.65
			c-0.16,0.43-0.24,1.55-0.24,3.35V64.47z M408.78,68.9c-1.58,1.15-2.49,2.12-2.74,2.9c-0.25,0.78-0.38,1.9-0.38,3.36
			c0,1.67,0.11,2.75,0.33,3.24c0.22,0.49,0.65,0.73,1.3,0.73c0.62,0,1.02-0.19,1.21-0.57c0.19-0.38,0.28-1.38,0.28-3.01V68.9z"/>
	</g>
	<g>
		<path class="st1" d="M126.84,102.76c-0.87,0.81-2.17,1.21-3.9,1.21h-3.11v6.57h-1.54V95.13h4.65c1.72,0,3.02,0.4,3.89,1.21
			c0.88,0.81,1.31,1.88,1.31,3.22C128.14,100.89,127.71,101.95,126.84,102.76z M126.55,99.56c0-1.03-0.29-1.81-0.86-2.34
			c-0.57-0.53-1.49-0.79-2.76-0.79h-3.11v6.22h3.11C125.35,102.65,126.55,101.62,126.55,99.56z"/>
		<path class="st1" d="M138.93,110.55l-3.82-6.44h-2.85v6.44h-1.54V95.13h4.63c1.72,0,3.03,0.41,3.92,1.24s1.33,1.9,1.33,3.24
			c0,1.12-0.32,2.07-0.96,2.86c-0.64,0.79-1.58,1.3-2.83,1.53l3.97,6.55H138.93z M132.27,102.85h3.11c1.21,0,2.11-0.29,2.72-0.88
			s0.92-1.38,0.92-2.36c0-1.01-0.29-1.8-0.88-2.35c-0.59-0.55-1.51-0.83-2.78-0.83h-3.09V102.85z"/>
		<path class="st1" d="M146.71,109.7c-1.16-0.67-2.08-1.6-2.75-2.8c-0.67-1.2-1-2.55-1-4.07s0.33-2.87,1-4.07
			c0.67-1.2,1.58-2.13,2.75-2.8c1.16-0.67,2.46-1,3.88-1c1.44,0,2.74,0.33,3.9,1c1.16,0.67,2.07,1.6,2.73,2.8
			c0.66,1.2,0.99,2.55,0.99,4.07s-0.33,2.87-0.99,4.07s-1.57,2.13-2.73,2.8c-1.16,0.67-2.46,1-3.9,1
			C149.17,110.7,147.88,110.37,146.71,109.7z M153.68,108.56c0.91-0.53,1.63-1.29,2.16-2.28c0.53-0.99,0.79-2.14,0.79-3.45
			s-0.27-2.46-0.79-3.44c-0.53-0.98-1.25-1.74-2.16-2.27s-1.94-0.79-3.09-0.79s-2.18,0.26-3.09,0.79c-0.91,0.53-1.63,1.29-2.16,2.27
			c-0.53,0.99-0.79,2.13-0.79,3.44s0.26,2.46,0.79,3.45c0.53,0.99,1.25,1.75,2.16,2.28c0.91,0.53,1.94,0.79,3.09,0.79
			S152.77,109.09,153.68,108.56z"/>
		<path class="st1" d="M168.18,95.13v11.67c0,1.18-0.36,2.12-1.08,2.83c-0.72,0.71-1.68,1.07-2.89,1.07c-1.25,0-2.25-0.38-2.99-1.14
			c-0.74-0.76-1.11-1.78-1.11-3.08h1.57c0.01,0.84,0.22,1.52,0.63,2.05c0.4,0.53,1.04,0.79,1.91,0.79c0.82,0,1.43-0.24,1.83-0.73
			s0.6-1.09,0.6-1.81V95.13H168.18z"/>
		<path class="st1" d="M173.6,96.39v5.76h5.85v1.28h-5.85v5.84h6.51v1.28h-8.05V95.11h8.05v1.28H173.6z"/>
		<path class="st1" d="M192.17,95.13v1.28h-4.28v14.14h-1.54V96.41h-4.3v-1.28H192.17z"/>
		<path class="st1" d="M197.67,109.7c-1.16-0.67-2.08-1.6-2.75-2.8c-0.67-1.2-1-2.55-1-4.07s0.33-2.87,1-4.07
			c0.67-1.2,1.58-2.13,2.75-2.8c1.16-0.67,2.46-1,3.88-1c1.44,0,2.74,0.33,3.9,1c1.16,0.67,2.07,1.6,2.73,2.8
			c0.66,1.2,0.99,2.55,0.99,4.07s-0.33,2.87-0.99,4.07s-1.57,2.13-2.73,2.8c-1.16,0.67-2.46,1-3.9,1
			C200.12,110.7,198.83,110.37,197.67,109.7z M204.64,108.56c0.91-0.53,1.63-1.29,2.16-2.28c0.53-0.99,0.79-2.14,0.79-3.45
			s-0.27-2.46-0.79-3.44c-0.53-0.98-1.25-1.74-2.16-2.27s-1.94-0.79-3.09-0.79s-2.18,0.26-3.09,0.79c-0.91,0.53-1.63,1.29-2.16,2.27
			c-0.53,0.99-0.79,2.13-0.79,3.44s0.26,2.46,0.79,3.45c0.53,0.99,1.25,1.75,2.16,2.28c0.91,0.53,1.94,0.79,3.09,0.79
			S203.72,109.09,204.64,108.56z"/>
		<path class="st1" d="M225.52,101.73v1.3h-8.58v-1.3H225.52z"/>
		<path class="st1" d="M244.09,102.76c-0.87,0.81-2.17,1.21-3.9,1.21h-3.11v6.57h-1.54V95.13h4.65c1.72,0,3.02,0.4,3.89,1.21
			c0.88,0.81,1.31,1.88,1.31,3.22C245.4,100.89,244.96,101.95,244.09,102.76z M243.81,99.56c0-1.03-0.29-1.81-0.86-2.34
			s-1.49-0.79-2.76-0.79h-3.11v6.22h3.11C242.6,102.65,243.81,101.62,243.81,99.56z"/>
		<path class="st1" d="M251.02,109.7c-1.16-0.67-2.08-1.6-2.75-2.8c-0.67-1.2-1-2.55-1-4.07s0.33-2.87,1-4.07
			c0.67-1.2,1.58-2.13,2.75-2.8c1.16-0.67,2.46-1,3.88-1c1.44,0,2.74,0.33,3.9,1c1.16,0.67,2.07,1.6,2.74,2.8
			c0.66,1.2,0.99,2.55,0.99,4.07s-0.33,2.87-0.99,4.07c-0.66,1.2-1.57,2.13-2.74,2.8c-1.16,0.67-2.46,1-3.9,1
			C253.48,110.7,252.18,110.37,251.02,109.7z M257.99,108.56c0.91-0.53,1.63-1.29,2.16-2.28c0.53-0.99,0.79-2.14,0.79-3.45
			s-0.26-2.46-0.79-3.44c-0.53-0.98-1.25-1.74-2.16-2.27s-1.94-0.79-3.09-0.79c-1.15,0-2.18,0.26-3.09,0.79
			c-0.91,0.53-1.63,1.29-2.16,2.27c-0.53,0.99-0.79,2.13-0.79,3.44s0.26,2.46,0.79,3.45c0.53,0.99,1.25,1.75,2.16,2.28
			c0.91,0.53,1.94,0.79,3.09,0.79C256.05,109.36,257.08,109.09,257.99,108.56z M257.04,91.78l-4.52,2.63v-1.19l4.52-2.82V91.78z"/>
		<path class="st1" d="M267.35,110.17c-0.77-0.35-1.38-0.85-1.82-1.48c-0.44-0.63-0.68-1.34-0.71-2.12h1.63
			c0.07,0.75,0.4,1.41,0.99,1.97c0.59,0.57,1.45,0.85,2.58,0.85c1.04,0,1.87-0.27,2.48-0.81c0.61-0.54,0.92-1.22,0.92-2.04
			c0-0.66-0.17-1.19-0.51-1.6c-0.34-0.4-0.76-0.71-1.26-0.9c-0.5-0.2-1.19-0.42-2.07-0.65c-1.03-0.28-1.85-0.55-2.45-0.82
			c-0.6-0.26-1.12-0.68-1.54-1.24c-0.43-0.56-0.64-1.32-0.64-2.27c0-0.79,0.21-1.5,0.62-2.13c0.41-0.62,0.99-1.11,1.74-1.47
			c0.75-0.35,1.61-0.53,2.58-0.53c1.43,0,2.58,0.35,3.45,1.05c0.87,0.7,1.38,1.6,1.51,2.7h-1.68c-0.1-0.63-0.45-1.19-1.04-1.69
			c-0.59-0.49-1.38-0.74-2.38-0.74c-0.93,0-1.7,0.25-2.32,0.74c-0.62,0.49-0.93,1.17-0.93,2.02c0,0.65,0.17,1.17,0.51,1.57
			c0.34,0.4,0.76,0.7,1.27,0.91c0.51,0.21,1.19,0.43,2.06,0.66c1,0.28,1.81,0.56,2.43,0.83c0.62,0.27,1.14,0.69,1.57,1.25
			c0.43,0.56,0.64,1.31,0.64,2.25c0,0.72-0.19,1.4-0.57,2.05c-0.38,0.65-0.95,1.17-1.7,1.57c-0.75,0.4-1.65,0.6-2.69,0.6
			C269.02,110.7,268.13,110.53,267.35,110.17z"/>
		<path class="st1" d="M296.15,99.63c-0.44-1.01-1.11-1.81-2.02-2.39s-1.97-0.87-3.19-0.87c-1.15,0-2.18,0.26-3.09,0.79
			c-0.91,0.53-1.63,1.28-2.16,2.26c-0.53,0.98-0.79,2.11-0.79,3.41s0.26,2.43,0.79,3.42c0.53,0.99,1.25,1.74,2.16,2.27
			c0.91,0.53,1.94,0.79,3.09,0.79c1.07,0,2.04-0.23,2.9-0.69c0.86-0.46,1.55-1.13,2.07-1.99c0.52-0.86,0.82-1.86,0.89-3.01h-6.48
			v-1.26h8.12v1.13c-0.07,1.35-0.44,2.58-1.1,3.67c-0.66,1.1-1.55,1.96-2.66,2.59s-2.36,0.95-3.74,0.95c-1.43,0-2.72-0.33-3.88-1
			c-1.16-0.67-2.08-1.6-2.75-2.8c-0.67-1.2-1-2.55-1-4.07s0.33-2.87,1-4.07c0.67-1.2,1.58-2.13,2.75-2.8c1.16-0.67,2.46-1,3.88-1
			c1.65,0,3.09,0.41,4.32,1.24c1.24,0.82,2.13,1.97,2.69,3.44H296.15z"/>
		<path class="st1" d="M309.47,110.55l-3.82-6.44h-2.85v6.44h-1.54V95.13h4.63c1.72,0,3.03,0.41,3.92,1.24s1.33,1.9,1.33,3.24
			c0,1.12-0.32,2.07-0.96,2.86c-0.64,0.79-1.58,1.3-2.83,1.53l3.97,6.55H309.47z M302.81,102.85h3.11c1.21,0,2.11-0.29,2.72-0.88
			s0.92-1.38,0.92-2.36c0-1.01-0.29-1.8-0.88-2.35c-0.59-0.55-1.51-0.83-2.78-0.83h-3.09V102.85z"/>
		<path class="st1" d="M323.15,106.89h-7.01l-1.35,3.66h-1.63l5.62-15.22h1.74l5.6,15.22h-1.63L323.15,106.89z M322.68,105.61
			l-3.04-8.34l-3.04,8.34H322.68z"/>
		<path class="st1" d="M337.55,96.06c1.22,0.62,2.15,1.51,2.8,2.67c0.65,1.16,0.97,2.54,0.97,4.15c0,1.59-0.32,2.96-0.97,4.11
			c-0.65,1.16-1.58,2.04-2.8,2.65s-2.68,0.92-4.39,0.92h-4.57V95.13h4.57C334.87,95.13,336.33,95.44,337.55,96.06z M338.07,107.58
			c1.13-1.13,1.69-2.69,1.69-4.71c0-2.03-0.56-3.61-1.69-4.75s-2.76-1.71-4.91-1.71h-3.02v12.86h3.02
			C335.31,109.27,336.94,108.71,338.07,107.58z"/>
		<path class="st1" d="M345.64,95.13v9.71c0,1.53,0.36,2.66,1.09,3.4c0.73,0.74,1.72,1.1,2.99,1.1s2.25-0.36,2.97-1.09
			c0.71-0.73,1.07-1.86,1.07-3.41v-9.71h1.54v9.68c0,1.96-0.52,3.43-1.55,4.41c-1.04,0.99-2.39,1.48-4.05,1.48s-3.01-0.49-4.05-1.48
			c-1.04-0.99-1.56-2.46-1.56-4.41v-9.68H345.64z"/>
		<path class="st1" d="M367.68,106.89h-7.01l-1.35,3.66h-1.63l5.62-15.22h1.74l5.6,15.22h-1.63L367.68,106.89z M367.22,105.61
			l-3.04-8.34l-3.04,8.34H367.22z"/>
		<path class="st1" d="M383.24,108.46c0.9-0.58,1.58-1.39,2.02-2.42h1.81c-0.52,1.35-1.32,2.43-2.42,3.23
			c-1.1,0.8-2.4,1.26-3.92,1.38v1.37c0.87-0.03,1.56,0.14,2.06,0.5c0.51,0.36,0.76,0.88,0.76,1.56c0,0.66-0.24,1.19-0.71,1.58
			c-0.47,0.39-1.1,0.58-1.88,0.58h-2.21v-1.04h1.9c0.54,0,0.95-0.09,1.2-0.28c0.26-0.18,0.39-0.47,0.39-0.85
			c0-0.71-0.53-1.06-1.59-1.06h-1.01v-2.34c-1.37-0.04-2.6-0.41-3.71-1.09c-1.1-0.68-1.97-1.61-2.59-2.78s-0.94-2.5-0.94-3.98
			c0-1.51,0.33-2.87,0.99-4.07c0.66-1.2,1.57-2.13,2.71-2.8c1.15-0.67,2.43-1,3.84-1c1.72,0,3.19,0.41,4.42,1.22
			s2.12,1.97,2.68,3.45h-1.81c-0.44-1.04-1.11-1.86-2.02-2.45s-2-0.88-3.28-0.88c-1.13,0-2.15,0.26-3.06,0.79
			c-0.9,0.53-1.61,1.29-2.13,2.28s-0.77,2.14-0.77,3.45s0.26,2.46,0.77,3.44c0.51,0.99,1.22,1.74,2.13,2.27
			c0.91,0.53,1.92,0.79,3.06,0.79C381.25,109.34,382.34,109.05,383.24,108.46z"/>
		<path class="st1" d="M399.07,106.89h-7.01l-1.35,3.66h-1.63l5.62-15.22h1.74l5.6,15.22h-1.63L399.07,106.89z M398.6,105.61
			l-3.04-8.34l-3.04,8.34H398.6z M393.31,92.48c0.34-0.35,0.77-0.53,1.3-0.53c0.26,0,0.49,0.05,0.68,0.14
			c0.19,0.1,0.42,0.23,0.68,0.41c0.22,0.16,0.41,0.28,0.57,0.36c0.16,0.08,0.34,0.12,0.53,0.12c0.25,0,0.46-0.08,0.64-0.25
			c0.18-0.17,0.29-0.42,0.33-0.74h0.93c-0.06,0.65-0.27,1.15-0.63,1.51s-0.8,0.54-1.33,0.54c-0.28,0-0.52-0.05-0.72-0.14
			s-0.43-0.24-0.7-0.43c-0.21-0.16-0.39-0.28-0.54-0.35s-0.33-0.11-0.52-0.11c-0.53,0-0.84,0.33-0.93,0.99h-0.95
			C392.76,93.34,392.97,92.84,393.31,92.48z"/>
		<path class="st1" d="M407.56,109.7c-1.16-0.67-2.08-1.6-2.75-2.8c-0.67-1.2-1-2.55-1-4.07s0.33-2.87,1-4.07
			c0.67-1.2,1.58-2.13,2.75-2.8c1.16-0.67,2.46-1,3.88-1c1.44,0,2.74,0.33,3.9,1c1.16,0.67,2.07,1.6,2.74,2.8
			c0.66,1.2,0.99,2.55,0.99,4.07s-0.33,2.87-0.99,4.07c-0.66,1.2-1.57,2.13-2.74,2.8c-1.16,0.67-2.46,1-3.9,1
			C410.01,110.7,408.72,110.37,407.56,109.7z M414.53,108.56c0.91-0.53,1.63-1.29,2.16-2.28c0.53-0.99,0.79-2.14,0.79-3.45
			s-0.26-2.46-0.79-3.44c-0.53-0.98-1.25-1.74-2.16-2.27s-1.94-0.79-3.09-0.79c-1.15,0-2.18,0.26-3.09,0.79
			c-0.91,0.53-1.63,1.29-2.16,2.27c-0.53,0.99-0.79,2.13-0.79,3.44s0.26,2.46,0.79,3.45c0.53,0.99,1.25,1.75,2.16,2.28
			c0.91,0.53,1.94,0.79,3.09,0.79C412.59,109.36,413.62,109.09,414.53,108.56z"/>
	</g>
</g>
</svg>
